# xmcd
# Copyright (C) 1995-1998 Ti Kan
#
# Track frame offsets:
#       150
#       14690
#       37078
#       53294
#       71276
#       83742
#       100658
#       114374
#       125946
#
# Disc length: 2039 seconds
#
# Revision: 0
# Processed by: cddbd v1.5.2PL0 Copyright (c) Steve Scherf et al.
# Submitted via: CD-Import v1.0
#
DISCID=6e07f509
DTITLE=Pontiak - Sea Voids
DYEAR=1900
DGENRE=
TTITLE0=Suzerain
TTITLE1=World Wide Prince 
TTITLE2=One Ton One Kilo
TTITLE3=Shot In The Alarm
TTITLE4=Life And Coral
TTITLE5=The Spiritual Nurse
TTITLE6=Feeding
TTITLE7=It's The Life
TTITLE8=Sea Voids
EXTD=
EXTT0=
EXTT1=
EXTT2=
EXTT3=
EXTT4=
EXTT5=
EXTT6=
EXTT7=
EXTT8=
PLAYORDER=
